<svg xmlns="http://www.w3.org/2000/svg" width="409" height="409" fill="none" viewBox="0 0 409 409"><path fill="#000" d="M204.5 409C317.442 409 409 317.442 409 204.5S317.442 0 204.5 0 0 91.558 0 204.5 91.558 409 204.5 409Z"/><path fill="#fff" fill-rule="evenodd" d="m289.708 163.032-2.692 1.302c-7.359-8.853-14.358-16.403-20.999-22.651-6.641-6.249-13.102-10.849-19.383-13.799-3.053-1.389-8.571-2.561-16.558-3.515-7.987-.955-17.275-1.432-27.865-1.432-1.794 0-3.858.043-6.191.13a2201.5 2201.5 0 0 0-6.732.26c-2.154.087-4.171.174-6.056.26-1.885.087-3.276.131-4.174.131a38.707 38.707 0 0 1-.673 3.124c-.269 1.042-.492 2.256-.673 3.645a122.729 122.729 0 0 0-.538 5.337c-.179 2.17-.358 4.817-.539 7.941-.179 6.075-.314 12.714-.404 19.918-.089 7.202-.135 14.016-.135 20.439v24.734h4.847c2.872 0 6.057-.087 9.557-.261 3.5-.174 7.135-.39 10.903-.651 3.77-.261 6.911-.651 9.423-1.172 6.462-1.388 11.578-3.211 15.346-5.467 3.769-2.257 6.731-4.948 8.884-8.071a30.51 30.51 0 0 0 4.577-10.285c.898-3.732 1.706-7.768 2.423-12.106h3.231v83.834h-3.231c-1.436-5.553-3.5-11.411-6.193-17.573-2.691-6.162-5.922-10.891-9.691-14.189-3.41-2.951-7.045-5.165-10.904-6.639-3.858-1.476-8.391-2.388-13.595-2.734a349.392 349.392 0 0 0-6.999-.392 128.67 128.67 0 0 0-5.655-.129h-12.923v32.284c0 4.86.046 9.33.135 13.41.09 4.078.135 7.593.135 10.543.18 5.554.494 10.805.942 15.752.45 4.947 1.481 8.635 3.097 11.065 1.615 2.43 4.352 4.296 8.21 5.598 3.86 1.302 9.469 2.127 16.827 2.473v2.604h-86.15v-2.604c4.487-.694 8.659-1.822 12.518-3.384 3.859-1.563 7.045-3.733 9.558-6.509.897-1.041 1.615-2.561 2.153-4.557.539-1.995 1.032-4.296 1.481-6.9.449-2.602.763-5.336.942-8.2.18-2.865.27-5.685.27-8.461 0-2.431.044-5.728.134-9.895.09-4.165.18-8.722.269-13.669.09-4.947.135-10.024.135-15.23V161.47c0-3.124-.045-6.336-.135-9.634a147.105 147.105 0 0 0-.538-9.372c-.269-2.951-.718-5.598-1.346-7.941-.628-2.344-1.481-4.036-2.558-5.077-2.692-2.778-5.564-4.557-8.615-5.338-3.051-.781-7-1.518-11.846-2.213v-2.603h149.688l18.306 43.74Z" clip-rule="evenodd"/></svg>